<svg xmlns="http://www.w3.org/2000/svg" width="177" height="33" viewBox="0 0 177 33" enable-background="new 0 0 177 33"><defs><linearGradient id="0" gradientUnits="userSpaceOnUse" x1="2.132" y1="2.024" x2="31.08" y2="30.972"><stop stop-color="#cae866"/><stop offset="1" stop-color="#8ccc59"/></linearGradient></defs><path fill="#fff" d="m1.01 3.055c0-1.138.904-2.055 1.991-2.055h171c1.112 0 2 .933 2 2.055v26.879c0 1.127-.895 2.063-2 2.063h-171c-1.093 0-1.992-.941-1.992-2.063v-26.879"/><path fill="#d9dde2" d="m173.99 2.036c.564 0 .998.458.998 1.018v26.881c0 .562-.434 1.028-.998 1.028h-171c-.545 0-.99-.467-.99-1.028v-26.88c0-.561.445-1.018.99-1.018h171m0-1.036h-171c-1.088 0-1.992.917-1.992 2.055v26.881c0 1.124.893 2.064 1.992 2.064h171c1.106 0 2-.938 2-2.064v-26.881c0-1.122-.893-2.055-2-2.055z"/><path fill="url(#0)" d="m1.01 3.055c0-1.138.902-2.055 1.988-2.055h28.01v30.997h-28.01c-1.091 0-1.988-.941-1.988-2.064v-26.878"/><g fill="#777"><path d="m42.799 15.734c-.038-.413-.188-.717-.442-.899-.254-.184-.58-.275-.969-.275-.162 0-.32.015-.478.053-.156.028-.288.086-.413.151-.116.077-.211.175-.285.306-.073.122-.104.278-.104.465 0 .186.045.323.147.429.111.117.245.202.417.276.172.062.375.128.589.173.224.04.44.087.674.145.232.051.45.111.673.191.213.063.415.17.586.28.171.127.302.285.414.472.102.186.147.433.147.699 0 .31-.06.58-.201.792-.14.209-.314.385-.522.527-.218.142-.449.229-.722.306-.264.057-.525.086-.786.086-.323 0-.621-.036-.902-.107-.292-.091-.543-.217-.754-.386-.221-.166-.392-.371-.512-.615-.13-.264-.186-.55-.186-.916h.716c0 .253.05.454.144.628.093.173.21.319.365.438.154.101.33.194.526.24.206.051.412.092.634.092.16 0 .342-.034.516-.062.172-.029.322-.078.463-.165.143-.069.251-.184.336-.32.087-.116.124-.29.124-.513 0-.195-.046-.357-.147-.465-.111-.129-.244-.239-.414-.306-.17-.088-.362-.145-.586-.189-.223-.063-.441-.109-.673-.151-.232-.045-.451-.111-.673-.172-.213-.061-.416-.158-.59-.273-.172-.107-.305-.247-.417-.419-.102-.17-.148-.391-.148-.652 0-.285.052-.536.175-.753.113-.207.271-.381.463-.522.191-.13.417-.24.666-.299.25-.068.504-.098.765-.098.289 0 .569.03.811.103.252.071.474.178.66.331.185.142.336.338.445.56.118.23.172.5.191.819h-.726l.003-.005"/><path d="m44.752 14.05h3.942v.647h-3.182v1.812h2.971v.642h-2.971v1.99h3.203v.624h-3.963v-5.715"/><path d="m53.738 15.777c-.038-.199-.108-.377-.203-.532-.095-.154-.22-.277-.354-.377-.146-.109-.305-.186-.479-.231-.175-.056-.361-.078-.565-.078-.34 0-.628.066-.873.189-.245.133-.441.307-.6.518-.159.222-.271.47-.347.743-.076.277-.109.572-.109.873 0 .313.033.623.109.922.076.295.188.54.347.753.158.23.357.402.604.517.246.132.545.209.884.209.241 0 .468-.056.66-.129.202-.094.37-.196.504-.347.145-.149.253-.323.333-.524.081-.198.133-.431.148-.661h.761c-.076.712-.326 1.269-.75 1.688-.424.397-1 .597-1.722.597-.441 0-.832-.068-1.164-.225-.333-.155-.605-.363-.817-.639-.224-.258-.388-.575-.495-.937-.106-.361-.166-.763-.166-1.172 0-.424.062-.814.175-1.176.113-.364.286-.686.516-.956.23-.271.509-.492.846-.651.336-.161.721-.229 1.171-.229.294 0 .573.035.838.116.276.08.505.195.718.352.204.156.377.347.52.582.142.236.232.503.27.803h-.762"/><path d="m60.13 17.702c0 .743-.192 1.286-.589 1.653-.386.369-.945.554-1.656.554-.375 0-.695-.038-.992-.114-.288-.094-.534-.233-.73-.412-.207-.181-.362-.404-.465-.689-.105-.266-.162-.595-.162-.992v-3.646h.759v3.646c0 .509.142.912.414 1.167.272.278.667.414 1.174.414.479 0 .854-.136 1.108-.414.253-.255.375-.656.375-1.167v-3.646h.761v3.646"/><path d="m61.43 14.05h2.693c.536 0 .959.14 1.273.408.303.268.459.63.459 1.096 0 .347-.079.649-.239.907-.159.266-.411.445-.757.535v.015c.167.044.305.093.407.162.102.083.186.165.253.276.066.093.106.215.139.349.023.132.043.25.057.392.02.144.028.29.035.439.008.151.019.277.036.418.017.14.052.275.087.405.045.111.098.229.18.313h-.849c-.047-.053-.088-.123-.105-.231-.017-.109-.027-.212-.032-.342-.004-.131-.009-.25-.014-.397-.005-.147-.028-.292-.052-.436-.019-.142-.052-.258-.081-.389-.028-.132-.083-.229-.154-.332-.071-.103-.163-.168-.274-.219-.111-.069-.262-.093-.442-.093h-1.859v2.439h-.761v-5.715m2.348 2.634c.176 0 .344-.011.505-.039.151-.022.295-.069.411-.153.126-.073.221-.179.294-.313.073-.129.105-.302.105-.506 0-.281-.081-.518-.241-.701-.162-.183-.419-.274-.775-.274h-1.887v1.987l1.588-.0001"/><path d="m66.99 14.05h3.942v.647h-3.182v1.812h2.97v.642h-2.97v1.99h3.213v.624h-3.973v-5.715"/><path d="m71.957 14.05h1.96c.884 0 1.565.229 2.034.675.479.446.719 1.133.719 2.052 0 .485-.058.902-.162 1.271-.114.386-.28.684-.498.949-.228.244-.509.454-.855.572-.347.138-.758.195-1.237.195h-1.961v-5.714m.76 5.091h1.267c.084 0 .189-.007.322-.019.124-.011.263-.06.41-.104.137-.046.284-.13.428-.214.134-.105.266-.24.375-.407.108-.147.201-.37.274-.609.073-.26.115-.547.115-.899 0-.345-.039-.648-.109-.927-.058-.269-.175-.491-.319-.686-.155-.186-.347-.323-.589-.432-.241-.101-.543-.146-.893-.146h-1.28v4.447"/><path d="m79.973 14.05h2.069c.132 0 .271 0 .406.004.136.003.271.001.411.021.14.021.27.039.387.063.123.024.23.068.311.126.185.109.345.268.48.464.13.198.193.44.193.732 0 .3-.071.564-.223.787-.147.216-.355.381-.626.492v.019c.351.068.624.228.813.482.186.239.272.543.272.895 0 .203-.037.403-.104.599-.081.215-.188.388-.333.543-.148.133-.33.263-.544.365-.22.082-.466.124-.75.124h-2.762v-5.716m.762 2.459h1.517c.435 0 .75-.072.937-.227.188-.153.286-.376.286-.685 0-.196-.038-.356-.099-.472-.063-.127-.154-.218-.268-.284-.104-.057-.239-.104-.387-.121-.144-.017-.302-.025-.467-.025h-1.517l-.002 1.814m0 2.63h1.904c.332 0 .588-.102.783-.285.189-.182.289-.425.289-.742 0-.184-.031-.341-.107-.47-.065-.13-.163-.214-.269-.297-.122-.064-.252-.111-.404-.154-.143-.026-.3-.04-.461-.04h-1.735v1.988"/><path d="m87.89 17.441v2.329h-.753v-2.329l-2.209-3.386h.902l1.71 2.727 1.675-2.727h.864l-2.189 3.386"/></g><g fill="#0072bc"><path d="m98.22 18.501l-1.54.037v-1.063l1.54.003v1.023"/><path d="m98.22 20.826l-1.54.096v-1.199l1.54-.049v1.152"/><path d="m106.29 14.242v-1.335l-9.622-.851v1.55l9.622.636"/><path d="m106.29 15.233v1.256l-7.501-.162v-1.432l7.501.338"/><path d="m106.3 17.489v.911l-7.511.118v-1.042l7.511.013"/><path d="m106.29 19.386v.989l-7.501.386v-1.1l7.501-.275"/></g><path fill="#43a455" d="m106.3 22.258l-2.731.283v-1.142l2.731-.232v1.091"/><g fill="#0072bc"><path d="m109.4 15.693v-1.409h1.268v-1.115c0-1.404.785-2.123 2.335-2.123.288 0 .564.028.818.107v1.418c-.13-.014-.256-.038-.412-.038-.938 0-1.048.345-1.048 1.194v.556h1.363v1.409h-1.363v6.579h-1.693v-6.579h-1.268"/><path d="m113.94 18.276c0-2.545 1.536-4.216 3.746-4.216 2.211 0 3.746 1.646 3.746 4.216 0 2.545-1.535 4.208-3.746 4.208-2.21 0-3.746-1.648-3.746-4.208m3.748 2.587c1.177 0 1.963-.992 1.963-2.587 0-1.628-.786-2.597-1.963-2.597-1.18 0-1.982.999-1.982 2.597-.0001 1.593.802 2.587 1.982 2.587"/><path d="m122.52 14.285h1.707v1.156c.53-.904 1.232-1.328 2.196-1.328.117 0 .198 0 .315.014v1.915c-.117-.014-.233-.014-.33-.014-1.349 0-2.183.738-2.183 1.89v4.354h-1.708v-7.989"/><path d="m127.56 14.285h1.675v.756c.592-.597 1.282-.901 2.054-.901.949 0 1.692.41 2.14 1.167.688-.771 1.523-1.167 2.424-1.167 1.522 0 2.513 1.022 2.513 2.798v5.332h-1.693v-5.02c0-1.039-.434-1.574-1.231-1.574-.91 0-1.653.755-1.653 1.846v4.747h-1.652v-5.02c0-1.04-.414-1.574-1.232-1.574-.894 0-1.667.755-1.667 1.845v4.746h-1.675v-7.99-.005.005z"/><path d="m140.56 19.926c.729.751 1.33.98 2.265.98.977 0 1.565-.428 1.565-1.022 0-.731-.634-.773-1.997-.993-1.804-.257-2.824-.746-2.824-2.256 0-1.409 1.246-2.537 3.27-2.537 1.221 0 2.184.359 3.071 1.208l-1.019 1.1c-.606-.539-1.336-.833-2.095-.833-.977 0-1.507.345-1.507.862 0 .792.991.706 2.61 1.021 1.507.288 2.237 1 2.237 2.271 0 1.566-1.289 2.731-3.299 2.731-1.535 0-2.728-.461-3.588-1.406l1.311-1.126"/><path d="m147.35 11.193h1.709v1.911h-1.709v-1.911m0 3.092h1.709v7.99h-1.709v-7.99"/><path d="m153.73 20.85c.156 0 .296-.014.427-.028v1.45c-.305.069-.588.117-.876.117-2.065 0-2.295-.876-2.295-2.636v-4.06h-1.267v-1.409h1.267v-2.784h1.71v2.784h1.461v1.409h-1.461v3.964c-.0001.848.095 1.193 1.034 1.193"/><path d="m158.24 22.47c-2.225 0-3.828-1.649-3.828-4.285 0-2.427 1.563-4.126 3.615-4.126 2.148 0 3.697 1.726 3.697 4.631v.102h-5.495c.131 1.265.992 2.044 2.128 2.044.743 0 1.474-.435 1.922-1.181l1.404.787c-.875 1.34-2.039 2.027-3.443 2.028m1.521-5.161c-.104-1-.832-1.711-1.708-1.711-.86 0-1.666.677-1.824 1.711h3.532"/></g><g fill="#fff"><path d="m16.53 17.11h-.043c-.432 0-.791.37-.791.839v1.633c0 .462.354.838.791.838h.043c.432 0 .79-.371.79-.838v-1.633c0-.464-.352-.839-.79-.839"/><path d="m22.2 13.807h-1.625v-2.65c0-2.19-1.815-3.962-4.066-3.962-2.242 0-4.058 1.771-4.058 3.962v2.65h-1.625c-.449 0-.817.369-.817.825v7.425c0 .91.731 1.674 1.62 1.674h9.766c.893 0 1.62-.741 1.62-1.674v-7.415c0-.461-.37-.835-.815-.835m-8.533-2.65c0-1.493 1.264-2.722 2.84-2.722 1.586 0 2.852 1.23 2.852 2.722v2.666h-5.692v-2.666m8.125 10.9c0 .249-.182.433-.395.433h-9.766c-.214 0-.394-.186-.394-.433v-7.01h1.216v.011h8.124v-.011h1.215v7.01z"/></g></svg>